<?xml version="1.0" encoding="UTF-8"?>
<svg id="Camada_2" data-name="Camada 2" xmlns="http://www.w3.org/2000/svg" viewBox="0 0 520.52 40">
  <defs>
    <style>
      .cls-1 {
        fill: #050607;
      }
    </style>
  </defs>
  <g id="Camada_1-2" data-name="Camada 1">
    <g>
      <g>
        <path class="cls-1" d="m38.79,22.77c0,9.29-7.09,17.03-18.57,17.03S0,30.95,0,19.96,8.3.13,20,.13c7.14,0,13.35,3.74,16.54,9.29l-2.58,1.54c-2.53-4.84-7.91-8.02-13.95-8.02C9.89,2.93,2.91,10.51,2.91,19.96s6.98,17.03,17.31,17.03c9.34,0,15-5.77,15.6-12.97h-16.32v-2.75h19.29v1.48Z"/>
        <path class="cls-1" d="m45.92,26.34V.73h2.91v25.6c0,6.26,3.9,10.66,11.15,10.66s11.21-4.4,11.21-10.66V.73h2.91v25.6c0,8.13-5.66,13.46-14.12,13.46s-14.07-5.33-14.07-13.46Z"/>
        <path class="cls-1" d="m86.68.73v38.46h-2.91V.73h2.91Z"/>
        <path class="cls-1" d="m117.93,36.45v2.75h-21.04V.73h2.91v35.71h18.13Z"/>
        <path class="cls-1" d="m152.81.73v38.46h-2.91v-18.41h-22.36v18.41h-2.91V.73h2.91v17.31h22.36V.73h2.91Z"/>
        <path class="cls-1" d="m185.16,36.45v2.75h-22.14V.73h21.87v2.75h-18.96v14.94h17.58v2.75h-17.58v15.27h19.23Z"/>
        <path class="cls-1" d="m208.01,23.43h-12.15v15.77h-2.91V.73h15.17c6.26,0,11.37,5.11,11.37,11.37,0,5.22-3.57,9.61-8.46,10.93l9.56,16.15h-3.35l-9.23-15.77Zm-12.15-2.75h12.25c4.67,0,8.46-3.85,8.46-8.57s-3.79-8.63-8.46-8.63h-12.25v17.2Z"/>
        <path class="cls-1" d="m262.06,39.19h-2.91V5.02l-14.23,23.63h-.5l-14.23-23.63v34.18h-2.91V.73h3.63l13.74,22.75,13.74-22.75h3.68v38.46Z"/>
        <path class="cls-1" d="m294.41,36.45v2.75h-22.14V.73h21.87v2.75h-18.96v14.94h17.58v2.75h-17.58v15.27h19.23Z"/>
      </g>
      <g>
        <path class="cls-1" d="m312.35,9.23v7.42h14.29v8.46h-14.29v14.12h-8.79V.77h23.35v8.46h-14.56Z"/>
        <path class="cls-1" d="m357.77,30.77v8.46h-24.18V.77h23.9v8.46h-15.11v6.37h13.74v8.35h-13.74v6.81h15.39Z"/>
        <path class="cls-1" d="m372.98.77v38.46h-8.79V.77h8.79Z"/>
        <path class="cls-1" d="m406.88,9.23h-9.89v30h-8.79V9.23h-9.89V.77h28.57v8.46Z"/>
        <path class="cls-1" d="m408.35,20c0-11.32,8.96-20,20-20s20,8.68,20,20-8.96,20-20,20-20-8.68-20-20Zm31.21,0c0-6.87-4.94-11.43-11.21-11.43s-11.21,4.56-11.21,11.43,4.95,11.43,11.21,11.43,11.21-4.56,11.21-11.43Z"/>
        <path class="cls-1" d="m451.47,30.5l7.58-4.4c1.37,3.19,3.74,5.33,8.08,5.33s5.22-1.65,5.22-3.13c0-2.36-2.2-3.3-7.97-4.89-5.71-1.59-11.32-4.34-11.32-11.7s6.26-11.7,12.91-11.7,11.26,3.02,14.07,8.68l-7.42,4.34c-1.32-2.75-3.13-4.45-6.65-4.45-2.75,0-4.12,1.37-4.12,2.91,0,1.76.93,2.97,6.92,4.78,5.82,1.76,12.36,3.79,12.36,11.92,0,7.42-5.93,11.81-14.29,11.81s-13.24-3.85-15.39-9.5Z"/>
        <path class="cls-1" d="m508.98,33.19h-14.29l-1.92,6.04h-9.61L496.24.77h11.21l13.08,38.46h-9.61l-1.92-6.04Zm-2.64-8.24l-4.51-14.12-4.51,14.12h9.01Z"/>
      </g>
    </g>
  </g>
</svg>